<?xml version="1.0" standalone="no"?>
<!DOCTYPE svg PUBLIC "-//W3C//DTD SVG 20010904//EN"
 "http://www.w3.org/TR/2001/REC-SVG-20010904/DTD/svg10.dtd">
<svg version="1.0" xmlns="http://www.w3.org/2000/svg"
 width="500.000000pt" height="500.000000pt" viewBox="0 0 500.000000 500.000000"
 preserveAspectRatio="xMidYMid meet">
<metadata>
Created by potrace 1.14, written by Peter Selinger 2001-2017
</metadata>
<g transform="translate(0.000000,500.000000) scale(0.100000,-0.100000)"
fill="#000000" stroke="none">
<path d="M2040 4978 c0 -4 -6 -8 -13 -8 -15 0 -108 -94 -106 -107 1 -4 1 -20
0 -34 -1 -23 -6 -26 -38 -27 -55 -2 -85 -18 -115 -61 -22 -30 -28 -51 -28 -90
0 -34 -4 -51 -12 -52 -7 0 -27 -2 -45 -3 -42 -3 -108 -48 -129 -87 -23 -45
-22 -541 2 -577 21 -32 52 -62 64 -62 5 0 10 -4 10 -10 0 -5 -4 -11 -10 -11
-5 -1 -14 -2 -18 -3 -5 0 -24 -19 -43 -40 l-34 -39 0 -247 0 -246 43 -43 c23
-23 42 -46 42 -51 0 -13 40 -23 118 -29 7 -1 12 -17 12 -44 0 -30 7 -52 21
-68 11 -13 24 -29 27 -34 13 -20 67 -49 92 -50 14 0 30 -3 35 -7 8 -5 13 -306
6 -338 0 -3 -9 -6 -18 -7 -89 -9 -101 -14 -138 -64 -33 -45 -32 -41 -34 -104
l-1 -45 -228 0 -229 0 -48 -45 c-39 -37 -48 -52 -49 -83 l-1 -37 -84 -5 c-45
-3 -85 -2 -88 3 -2 4 -9 4 -15 1 -6 -4 -25 -7 -41 -6 -50 1 -139 -75 -144
-125 -2 -13 -4 -35 -6 -50 -2 -25 -6 -28 -42 -28 -22 0 -46 -5 -52 -12 -7 -6
-23 -20 -36 -30 -12 -10 -32 -31 -43 -48 -20 -30 -20 -42 -18 -895 1 -476 2
-873 3 -882 1 -22 78 -106 116 -127 27 -15 175 -16 1758 -19 1882 -2 1759 -6
1805 52 11 14 22 22 26 19 3 -3 6 -1 6 5 0 7 8 20 19 31 16 16 24 59 22 119
-1 22 -2 46 -1 115 0 38 -2 73 -5 77 -3 5 -2 11 3 14 5 3 6 27 2 54 -3 27 -3
60 1 74 4 14 3 31 -1 38 -4 7 -4 27 0 46 5 20 4 37 -2 40 -5 4 -5 11 1 18 6 7
8 15 6 18 -8 7 -10 147 -3 154 3 3 2 19 -1 37 -4 18 -4 44 0 59 4 16 3 28 -1
28 -5 0 -5 12 -1 28 4 15 4 39 0 54 -4 15 -5 29 -2 32 3 3 4 47 4 98 -1 51 -2
100 -1 108 0 8 0 26 -1 40 0 14 -1 32 0 40 0 8 0 114 0 235 0 121 0 231 0 244
2 59 -82 133 -152 135 l-41 2 -1 52 c0 35 -5 56 -15 62 -8 5 -12 10 -8 10 11
0 -42 50 -52 50 -6 0 -10 4 -10 9 0 5 -9 13 -20 16 -26 8 -246 8 -260 0 -10
-6 -11 -3 -14 47 0 14 -11 37 -23 50 -13 14 -23 30 -23 38 0 7 -3 11 -6 7 -3
-3 -15 3 -27 14 -19 18 -37 19 -248 19 l-226 0 -6 67 c-4 59 -9 70 -38 98 -19
17 -37 32 -41 34 -4 1 -13 3 -20 5 -35 11 -58 13 -53 6 3 -4 -4 -6 -14 -3 -19
5 -35 59 -20 69 4 2 4 18 -1 34 -5 17 -6 30 -2 30 4 0 6 24 4 52 -4 79 -3 161
2 166 3 2 21 5 40 7 32 2 54 13 97 47 25 21 42 60 44 102 2 43 16 53 66 50 16
-1 29 2 29 7 0 5 6 9 13 9 14 1 87 66 87 79 0 5 7 11 15 15 11 4 13 11 6 29
-5 13 -6 29 -3 34 4 6 6 106 5 222 -2 239 -7 258 -75 289 -44 20 -47 29 -13
38 14 3 25 10 25 15 0 4 11 20 25 34 29 32 31 59 27 361 l-3 212 -39 41 c-22
22 -46 41 -55 41 -8 0 -15 4 -15 9 0 4 -21 8 -47 7 l-47 -1 3 58 c2 37 -1 57
-9 57 -6 0 -10 3 -8 8 2 4 -11 22 -29 40 -18 18 -33 30 -33 26 0 -4 -7 0 -16
7 -9 7 -33 12 -55 10 -38 -2 -39 -2 -40 31 -1 18 -1 36 -1 39 2 13 -88 99
-102 99 -9 0 -16 4 -16 8 0 4 -198 8 -440 8 -242 0 -440 -3 -440 -8z"/>
</g>
</svg>
