<svg version="1.0" xmlns="http://www.w3.org/2000/svg"
 width="512.000000pt" height="512.000000pt" viewBox="0 0 512.000000 512.000000"
 preserveAspectRatio="xMidYMid meet">

<g transform="translate(0.000000,512.000000) scale(0.100000,-0.100000)"
fill="currentColor" stroke="none">
<path d="M3070 4583 c-147 -15 -263 -78 -346 -186 -17 -23 -178 -298 -358
-612 -292 -510 -326 -574 -326 -613 0 -152 194 -221 282 -101 14 19 163 277
333 574 169 297 321 554 338 572 27 29 94 56 121 48 6 -2 25 -6 41 -10 22 -5
114 -90 335 -310 168 -166 315 -308 327 -314 31 -16 100 -14 139 5 67 32 100
119 75 196 -8 25 -103 125 -334 354 -301 300 -327 322 -394 353 -69 31 -171
50 -233 44z"/>
<path d="M4162 3560 c-46 -28 -72 -76 -72 -133 0 -62 8 -76 96 -169 81 -85 99
-127 84 -192 -4 -21 -21 -51 -36 -67 -15 -16 -278 -172 -583 -346 -406 -232
-568 -330 -602 -363 -43 -43 -54 -68 -198 -430 -84 -212 -158 -390 -164 -396
-43 -42 -25 -57 -647 557 -339 335 -593 593 -597 607 -4 16 0 30 13 42 11 10
98 48 194 85 104 40 187 78 204 94 33 30 56 78 56 118 0 43 -38 110 -76 134
-58 36 -102 29 -292 -44 -212 -82 -243 -98 -302 -153 -114 -106 -146 -256 -88
-412 19 -51 46 -83 279 -317 l259 -260 -561 -560 c-600 -598 -607 -607 -594
-687 10 -54 64 -114 118 -129 89 -24 70 -40 693 583 l572 570 258 -254 c275
-269 302 -290 408 -306 127 -20 252 24 339 118 50 53 59 74 201 430 82 206
154 380 160 387 6 7 202 122 436 256 234 134 483 277 554 318 155 88 221 150
271 253 95 193 54 393 -116 571 -46 48 -96 93 -111 101 -40 21 -117 18 -156
-6z"/>
</g>
</svg>
