<svg version="1.0" xmlns="http://www.w3.org/2000/svg"
 width="512.000000pt" height="512.000000pt" viewBox="0 0 512.000000 512.000000"
 preserveAspectRatio="xMidYMid meet">

<g transform="translate(0.000000,512.000000) scale(0.100000,-0.100000)"
fill="currentColor" stroke="none">
<path d="M3070 4583 c-147 -15 -262 -78 -346 -186 -18 -23 -137 -226 -265
-452 -257 -454 -262 -466 -219 -543 53 -95 184 -110 256 -30 12 12 121 201
244 418 123 217 236 409 252 427 28 29 95 56 122 48 6 -2 25 -6 41 -10 22 -5
160 -136 539 -513 279 -279 521 -525 537 -546 48 -64 38 -158 -23 -212 -12
-12 -180 -110 -373 -219 -192 -108 -362 -210 -377 -226 -32 -33 -51 -97 -42
-136 19 -82 99 -141 175 -129 60 10 784 425 845 485 106 104 149 214 142 369
-3 87 -7 105 -41 177 -37 79 -47 89 -595 637 -539 539 -559 558 -633 593 -74
35 -172 54 -239 48z"/>
<path d="M642 4530 c-18 -11 -41 -34 -52 -52 -24 -39 -27 -117 -6 -156 8 -15
530 -542 1160 -1172 630 -630 1146 -1149 1146 -1154 0 -18 -202 -521 -213
-532 -7 -7 -23 -15 -36 -19 -21 -6 -85 54 -608 576 -321 321 -586 595 -590
607 -8 33 17 54 112 93 44 18 92 46 107 62 95 100 22 267 -116 267 -58 0 -239
-85 -300 -140 -119 -110 -153 -259 -94 -418 19 -51 46 -83 279 -317 l259 -260
-561 -560 c-600 -598 -607 -607 -594 -687 10 -54 64 -114 118 -129 89 -24 70
-39 692 582 l570 569 249 -249 c268 -268 305 -296 410 -310 161 -22 323 57
391 190 20 38 140 334 169 414 6 16 102 -76 589 -562 320 -319 592 -586 604
-592 12 -6 43 -11 70 -11 90 0 153 63 153 153 0 26 -6 60 -14 75 -18 33 -3712
3725 -3743 3741 -35 18 -114 13 -151 -9z"/>
</g>
</svg>
